Coordinates
version=1
nRows=65
nColumns=12
inDegrees=yes

Units are S.I. units (second, meters, Newtons, ...)
Angles are in degrees

endheader
time	SC_y	SC_z	SC_x	AC_y	AC_z	AC_x	GH_y	GH_z	GH_yy	EL_x	PS_y
       0.0              -19.56          34.44           28.7          62.94         -6.413          -12.4          150.3         -16.75          31.76          17.52          150.9
   0.03143              -19.57          34.44           28.7          62.94         -6.415          -12.4          150.3         -16.75          31.74          17.53          150.9
   0.06286              -19.57          34.44           28.7          62.94         -6.417          -12.4          150.3         -16.75          31.71          17.54          150.9
   0.09429              -19.58          34.44          28.69          62.94         -6.419          -12.4          150.3         -16.74          31.68          17.55          150.9
    0.1257              -19.58          34.44          28.69          62.94         -6.421          -12.4          150.3         -16.74          31.65          17.56          150.9
    0.1571              -19.58          34.44          28.69          62.94         -6.423          -12.4          150.3         -16.73          31.61          17.57          150.9
    0.1886              -19.59          34.44          28.69          62.94         -6.426         -12.41          150.3         -16.73          31.58          17.58          150.9
      0.22              -19.59          34.44          28.69          62.94         -6.429         -12.41          150.2         -16.73          31.54           17.6          150.9
    0.2514               -19.6          34.44          28.68          62.94         -6.431         -12.41          150.2         -16.72          31.49          17.61          150.9
    0.2829              -19.61          34.44          28.68          62.94         -6.435         -12.41          150.2         -16.71          31.45          17.62          150.9
    0.3143              -19.61          34.44          28.68          62.94         -6.438         -12.41          150.2         -16.71           31.4          17.64          150.9
    0.3457              -19.62          34.44          28.68          62.94         -6.442         -12.41          150.2          -16.7          31.35          17.66          150.9
    0.3771              -19.63          34.44          28.67          62.95         -6.445         -12.41          150.1          -16.7          31.29          17.67          150.9
    0.4086              -19.63          34.44          28.67          62.95          -6.45         -12.41          150.1         -16.69          31.23          17.69          150.9
      0.44              -19.64          34.44          28.67          62.95         -6.454         -12.42          150.1         -16.68          31.17          17.71          150.9
    0.4714              -19.65          34.44          28.66          62.95         -6.459         -12.42          150.1         -16.67           31.1          17.74          150.9
    0.5029              -19.66          34.44          28.66          62.95         -6.464         -12.42          150.0         -16.66          31.02          17.76          150.9
    0.5343              -19.67          34.44          28.65          62.95          -6.47         -12.42          150.0         -16.65          30.93          17.79          150.9
    0.5657              -19.68          34.44          28.65          62.96         -6.477         -12.42          150.0         -16.64          30.84          17.82          150.9
    0.5971               -19.7          34.44          28.64          62.96         -6.484         -12.43          149.9         -16.63          30.74          17.85          150.8
    0.6286              -19.71          34.44          28.64          62.96         -6.491         -12.43          149.9         -16.62          30.63          17.88          150.8
      0.66              -19.73          34.44          28.63          62.96           -6.5         -12.43          149.8          -16.6          30.51          17.92          150.8
    0.6914              -19.74          34.44          28.63          62.97         -6.509         -12.43          149.8         -16.59          30.37          17.96          150.8
    0.7229              -19.76          34.44          28.62          62.97         -6.519         -12.44          149.7         -16.57          30.22          18.01          150.8
    0.7543              -19.78          34.43          28.61          62.97         -6.531         -12.44          149.6         -16.55          30.06          18.06          150.8
    0.7857              -19.81          34.43           28.6          62.98         -6.544         -12.45          149.6         -16.53          29.87          18.12          150.8
    0.8171              -19.83          34.43          28.59          62.98         -6.558         -12.45          149.5          -16.5          29.67          18.19          150.8
    0.8486              -19.86          34.43          28.58          62.99         -6.574         -12.46          149.4         -16.48          29.43          18.26          150.8
      0.88               -19.9          34.43          28.56          62.99         -6.593         -12.46          149.3         -16.44          29.17          18.34          150.8
    0.9114              -19.94          34.43          28.55           63.0         -6.613         -12.47          149.2         -16.41          28.87          18.44          150.8
    0.9429              -19.98          34.43          28.53          63.01         -6.637         -12.48          149.0         -16.37          28.53          18.55          150.7
    0.9743              -20.03          34.42          28.51          63.02         -6.664         -12.49          148.9         -16.32          28.14          18.67          150.7
     1.006              -20.09          34.42          28.48          63.03         -6.695          -12.5          148.7         -16.27          27.69          18.81          150.7
     1.037              -20.16          34.42          28.46          63.04         -6.732         -12.51          148.5         -16.21          27.16          18.98          150.7
     1.069              -20.23          34.42          28.42          63.05         -6.775         -12.53          148.2         -16.13          26.55          19.17          150.6
       1.1              -20.33          34.41          28.39          63.07         -6.825         -12.54          147.9         -16.05          25.82           19.4          150.6
     1.131              -20.44          34.41          28.34          63.09         -6.884         -12.56          147.6         -15.95          24.96          19.67          150.6
     1.163              -20.57           34.4          28.29          63.11         -6.956         -12.59          147.2         -15.82          23.93           20.0          150.5
     1.194              -20.73           34.4          28.22          63.14         -7.043         -12.62          146.7         -15.68          22.68          20.39          150.5
     1.226              -20.93          34.39          28.14          63.18         -7.148         -12.65          146.1         -15.49          21.15          20.87          150.4
     1.257              -21.17          34.38          28.04          63.22         -7.279          -12.7          145.3         -15.27          19.27          21.47          150.3
     1.289              -21.47          34.37          27.92          63.27         -7.442         -12.76          144.4         -14.99          16.92          22.21          150.2
      1.32              -21.85          34.35          27.76          63.34         -7.647         -12.83          143.2         -14.64          13.96          23.14          150.0
     1.351              -22.33          34.33          27.57          63.43         -7.907         -12.92          141.7          -14.2           10.2          24.33          149.9
     1.383              -22.95          34.31          27.31          63.53         -8.241         -13.03          139.7         -13.63          5.391          25.85          149.6
     1.414              -23.74          34.28          26.99          63.68         -8.669         -13.18          137.3         -12.89        -0.7855          27.79          149.3
     1.446              -24.75          34.24          26.58          63.85         -9.216         -13.37          134.1         -11.96         -8.675          30.28          149.0
     1.477              -26.02          34.19          26.06          64.08         -9.904          -13.6          130.1         -10.78         -18.59          33.41          148.5
     1.509              -27.57          34.13          25.42          64.36         -10.74         -13.89          125.3         -9.351         -30.68          37.23          147.9
      1.54              -29.37          34.05          24.69          64.67         -11.71         -14.23          119.7          -7.69          -44.7          41.65          147.2
     1.571              -31.32          33.98          23.89          65.02         -12.76         -14.59          113.6         -5.892         -59.87          46.44          146.5
     1.603              -33.26           33.9           23.1          65.36         -13.82         -14.95          107.5         -4.094         -75.04          51.22          145.8
     1.634              -35.06          33.83          22.36          65.68         -14.79         -15.28          101.9         -2.433         -89.05          55.64          145.1
     1.666              -36.61          33.77          21.73          65.96         -15.63         -15.57           97.0           -1.0         -101.1          59.46          144.5
     1.697              -37.88          33.72          21.21          66.18         -16.31         -15.81          93.02         0.1755         -111.1          62.59          144.0
     1.729              -38.89          33.68          20.79          66.36         -16.86          -16.0          89.86          1.111         -119.0          65.08          143.6
      1.76              -39.69          33.64          20.47           66.5         -17.29         -16.14          87.38          1.843         -125.1          67.03          143.3
     1.791               -40.3          33.62          20.22          66.61         -17.62         -16.26          85.45          2.413         -129.9          68.55          143.1
     1.823              -40.79           33.6          20.02           66.7         -17.88         -16.35          83.94          2.859         -133.7          69.73          142.9
     1.854              -41.17          33.59          19.86          66.76         -18.09         -16.42          82.75          3.209         -136.7          70.67          142.8
     1.886              -41.47          33.57          19.74          66.82         -18.25         -16.48          81.81          3.488         -139.0          71.41          142.7
     1.917              -41.71          33.56          19.64          66.86         -18.38         -16.52          81.06          3.711         -140.9           72.0          142.6
     1.949               -41.9          33.56          19.56           66.9         -18.49         -16.56          80.44          3.891         -142.4          72.48          142.5
      1.98              -42.06          33.55           19.5          66.92         -18.57         -16.59          79.94           4.04         -143.7          72.88          142.5
     2.011               -42.2          33.54          19.44          66.95         -18.65         -16.61          79.53          4.162         -144.7           73.2          142.4
